<?xml version="1.0" encoding="UTF-8"?>
<!--Generator: Apple Native CoreSVG 326-->
<!DOCTYPE svg
PUBLIC "-//W3C//DTD SVG 1.1//EN"
       "http://www.w3.org/Graphics/SVG/1.1/DTD/svg11.dtd">
<svg version="1.1" xmlns="http://www.w3.org/2000/svg" xmlns:xlink="http://www.w3.org/1999/xlink" viewBox="0 0 20.2832 19.9316">
 <g>
  <rect height="19.9316" opacity="0" width="20.2832" x="0" y="0"/>
  <path d="M19.9219 9.96094C19.9219 15.4492 15.459 19.9219 9.96094 19.9219C4.47266 19.9219 0 15.4492 0 9.96094C0 4.46289 4.47266 0 9.96094 0C15.459 0 19.9219 4.46289 19.9219 9.96094ZM8.24219 6.07422C7.76367 6.07422 7.46094 6.36719 7.46094 6.81641C7.46094 7.25586 7.77344 7.54883 8.26172 7.54883L10.0781 7.54883L11.5723 7.39258L10 8.85742L6.29883 12.5488C6.15234 12.6953 6.05469 12.9004 6.05469 13.0957C6.05469 13.5547 6.35742 13.8477 6.79688 13.8477C7.04102 13.8477 7.22656 13.7598 7.38281 13.6133L11.0645 9.92188L12.5195 8.36914L12.373 9.94141L12.373 11.6699C12.373 12.1484 12.666 12.4609 13.1152 12.4609C13.5547 12.4609 13.8574 12.1191 13.8574 11.6504L13.8574 6.9043C13.8574 6.30859 13.5254 6.07422 13.0078 6.07422Z" fill="#28cd41"/>
 </g>
</svg>
