<?xml version="1.0" encoding="UTF-8"?>
<!--Generator: Apple Native CoreSVG 175.5-->
<!DOCTYPE svg
PUBLIC "-//W3C//DTD SVG 1.1//EN"
       "http://www.w3.org/Graphics/SVG/1.1/DTD/svg11.dtd">
<svg version="1.1" xmlns="http://www.w3.org/2000/svg" xmlns:xlink="http://www.w3.org/1999/xlink" width="19.9219" height="19.9316">
 <g>
  <rect height="19.9316" opacity="0" width="19.9219" x="0" y="0"/>
  <path d="M9.96094 19.9219C15.4102 19.9219 19.9219 15.4004 19.9219 9.96094C19.9219 4.51172 15.4004 0 9.95117 0C4.51172 0 0 4.51172 0 9.96094C0 15.4004 4.52148 19.9219 9.96094 19.9219ZM9.96094 18.2617C5.35156 18.2617 1.66992 14.5703 1.66992 9.96094C1.66992 5.35156 5.3418 1.66016 9.95117 1.66016C14.5605 1.66016 18.2617 5.35156 18.2617 9.96094C18.2617 14.5703 14.5703 18.2617 9.96094 18.2617Z" fill="#007aff"/>
  <path d="M9.96094 4.99023C9.54102 4.99023 9.22852 5.29297 9.22852 5.72266L9.22852 10.6055L9.30664 12.666L8.33008 11.4941L7.16797 10.3223C7.03125 10.1855 6.85547 10.1074 6.65039 10.1074C6.25 10.1074 5.94727 10.4102 5.94727 10.8105C5.94727 11.0156 6.00586 11.1914 6.13281 11.3184L9.39453 14.5605C9.58984 14.7559 9.75586 14.8438 9.96094 14.8438C10.1758 14.8438 10.3516 14.7461 10.5371 14.5605L13.7891 11.3184C13.916 11.1914 13.9941 11.0156 13.9941 10.8105C13.9941 10.4102 13.6816 10.1074 13.2812 10.1074C13.0664 10.1074 12.8906 10.1758 12.7637 10.3223L11.6113 11.4941L10.6152 12.6758L10.6934 10.6055L10.6934 5.72266C10.6934 5.29297 10.3906 4.99023 9.96094 4.99023Z" fill="#000000" fill-opacity="0.85"/>
 </g>
</svg>
