<?xml version="1.0" encoding="UTF-8"?>
<!--Generator: Apple Native CoreSVG 175.5-->
<!DOCTYPE svg
PUBLIC "-//W3C//DTD SVG 1.1//EN"
       "http://www.w3.org/Graphics/SVG/1.1/DTD/svg11.dtd">
<svg version="1.1" xmlns="http://www.w3.org/2000/svg" xmlns:xlink="http://www.w3.org/1999/xlink" width="18.418" height="3.91602">
 <g>
  <rect height="3.91602" opacity="0" width="18.418" x="0" y="0"/>
  <path d="M1.95312 3.91602C3.05664 3.91602 3.93555 3.04688 3.93555 1.96289C3.93555 0.878906 3.05664 0.00976562 1.95312 0.00976562C0.878906 0.00976562 0 0.878906 0 1.96289C0 3.04688 0.878906 3.91602 1.95312 3.91602ZM9.20898 3.91602C10.293 3.91602 11.1621 3.04688 11.1621 1.96289C11.1621 0.878906 10.293 0.00976562 9.20898 0.00976562C8.13477 0.00976562 7.26562 0.878906 7.26562 1.96289C7.26562 3.04688 8.13477 3.91602 9.20898 3.91602ZM16.4648 3.91602C17.5488 3.91602 18.418 3.04688 18.418 1.96289C18.418 0.878906 17.5488 0.00976562 16.4648 0.00976562C15.3613 0.00976562 14.4922 0.878906 14.4922 1.96289C14.4922 3.04688 15.3613 3.91602 16.4648 3.91602Z" fill="#000000" fill-opacity="0.85"/>
 </g>
</svg>
