<?xml version="1.0" encoding="UTF-8"?>
<!--Generator: Apple Native CoreSVG 175.5-->
<!DOCTYPE svg
PUBLIC "-//W3C//DTD SVG 1.1//EN"
       "http://www.w3.org/Graphics/SVG/1.1/DTD/svg11.dtd">
<svg version="1.1" xmlns="http://www.w3.org/2000/svg" xmlns:xlink="http://www.w3.org/1999/xlink" width="19.9219" height="19.9316">
 <g>
  <rect height="19.9316" opacity="0" width="19.9219" x="0" y="0"/>
  <path d="M9.96094 19.9219C15.4102 19.9219 19.9219 15.4004 19.9219 9.96094C19.9219 4.51172 15.4004 0 9.95117 0C4.51172 0 0 4.51172 0 9.96094C0 15.4004 4.52148 19.9219 9.96094 19.9219Z" fill="#ff3b30"/>
  <path d="M6.02539 10.8203C5.44922 10.8203 5.05859 10.5176 5.05859 9.98047C5.05859 9.43359 5.42969 9.12109 6.02539 9.12109L13.916 9.12109C14.502 9.12109 14.8633 9.43359 14.8633 9.98047C14.8633 10.5176 14.4824 10.8203 13.916 10.8203Z" fill="#ffffff"/>
 </g>
</svg>
