<?xml version="1.0" encoding="UTF-8"?>
<!--Generator: Apple Native CoreSVG 175.5-->
<!DOCTYPE svg
PUBLIC "-//W3C//DTD SVG 1.1//EN"
       "http://www.w3.org/Graphics/SVG/1.1/DTD/svg11.dtd">
<svg version="1.1" xmlns="http://www.w3.org/2000/svg" xmlns:xlink="http://www.w3.org/1999/xlink" width="19.9219" height="19.9316">
 <g>
  <rect height="19.9316" opacity="0" width="19.9219" x="0" y="0"/>
  <path d="M9.96094 19.9316C15.4102 19.9316 19.9219 15.4199 19.9219 9.9707C19.9219 4.53125 15.4004 0.00976562 9.95117 0.00976562C4.51172 0.00976562 0 4.53125 0 9.9707C0 15.4199 4.52148 19.9316 9.96094 19.9316Z" fill="#ff9500"/>
  <path d="M6.00586 11.875C6.00586 10.8008 6.86523 9.64844 8.30078 9.14062L8.4668 6.77734C7.74414 6.36719 7.13867 5.89844 6.875 5.55664C6.72852 5.37109 6.65039 5.18555 6.65039 5.01953C6.65039 4.70703 6.89453 4.48242 7.25586 4.48242L12.6855 4.48242C13.0469 4.48242 13.291 4.70703 13.291 5.01953C13.291 5.18555 13.2129 5.37109 13.0762 5.54688C12.8125 5.88867 12.207 6.36719 11.4746 6.77734L11.6309 9.14062C13.0762 9.64844 13.9355 10.8008 13.9355 11.875C13.9355 12.3145 13.6426 12.5977 13.1934 12.5977L10.5957 12.5977L10.5957 14.3848C10.5957 15.4785 10.1562 16.3965 9.9707 16.3965C9.78516 16.3965 9.3457 15.4785 9.3457 14.3848L9.3457 12.5977L6.73828 12.5977C6.28906 12.5977 6.00586 12.3145 6.00586 11.875Z" fill="#ffffff"/>
 </g>
</svg>
