<?xml version="1.0" encoding="UTF-8"?>

<svg width="2440px" height="300px" viewBox="0 0 2440 300" version="1.1" xmlns="http://www.w3.org/2000/svg" xmlns:xlink="http://www.w3.org/1999/xlink">
    <g id="Page-1" stroke="none" stroke-width="1" fill="none" fill-rule="evenodd">
        <g id="pinnable" fill="#000000" fill-rule="nonzero">
            <g id="P">
                <path d="M30,0 L80,0 L80,0 L80,300 L0,300 L0,30 C0,13.4314575 13.4314575,0 30,0 Z" id="Rectangle"></path>
                <g id="Group">
                    <path d="M303.496895,3.03157127e-15 C331.894881,3.03157127e-15 346.036791,3.71302445 359.073828,10.6853082 C372.110865,17.6575919 382.342408,27.8891348 389.314692,40.9261719 C396.286976,53.9632089 400,68.1051189 400,96.5031053 L400,123.496895 C400,151.894881 396.286976,166.036791 389.314692,179.073828 C382.342408,192.110865 372.110865,202.342408 359.073828,209.314692 C346.036791,216.286976 331.894881,220 303.496895,220 L0,220 L0,38.458278 C0,25.0854969 1.39238417,20.2362033 4.00699056,15.3473144 C6.62159695,10.4584256 10.4584256,6.62159695 15.3473144,4.00699056 C20.1632348,1.43140814 24.940733,0.041835977 37.8651645,3.03157127e-15 L303.496895,3.03157127e-15 Z M284.294466,70 L80,70 L80,150 L284.294466,150 C294.363954,150 299.763797,148.607616 304.652686,145.993009 C309.541574,143.378403 313.378403,139.541574 315.993009,134.652686 C318.607616,129.763797 320,124.363954 320,114.294466 L320,105.705534 C320,95.6360458 318.607616,90.2362033 315.993009,85.3473144 C313.378403,80.4584256 309.541574,76.6215969 304.652686,74.0069906 C299.763797,71.3923842 294.363954,70 284.294466,70 Z" id="Combined-Shape"></path>
                </g>
            </g>
            <g id="L" transform="translate(1780.000000, 0.000000)">
                <path d="M0,0 L80,0 L80,300 L30,300 C13.4314575,300 0,286.568542 0,270 L0,0 L0,0 Z" id="Rectangle"></path>
                <path d="M80,140 L160,140 L160,350 C160,366.568542 146.568542,380 130,380 L80,380 L80,380 L80,140 Z" id="Rectangle" transform="translate(120.000000, 260.000000) rotate(90.000000) translate(-120.000000, -260.000000) "></path>
            </g>
            <path d="M1357.31754,0 C1370.92279,0 1382.82469,9.1556244 1386.31408,22.3057933 L1460,300 L1160,300 L1234.11282,22.2652275 C1237.61658,9.13503563 1249.50893,0 1263.09857,0 L1357.31754,0 Z M1362.5,240 L1257.5,240 L1240,300 L1380,300 L1362.5,240 Z M1304.15438,80.0421288 L1275,180 L1345,180 L1315.95821,80.4281613 L1304.15438,80.0421288 Z" id="Combined-Shape"></path>
            <path d="M740,240 L740,0 L820,0 L820,270 C820,286.568542 806.568542,300 790,300 L690,300 L600,60 L600,300 L520,300 L520,30 C520,13.4314575 533.431458,0 550,0 L650,0 L740,240 Z" id="Combined-Shape"></path>
            <path d="M1060,240 L1060,0 L1140,0 L1140,270 C1140,286.568542 1126.56854,300 1110,300 L1010,300 L920,60 L920,300 L840,300 L840,30 C840,13.4314575 853.431458,0 870,0 L970,0 L1060,240 Z" id="Combined-Shape"></path>
            <g id="E" transform="translate(2040.000000, 0.000000)">
                <path d="M30,0 L80,0 L80,0 L80,300 L30,300 C13.4314575,300 0,286.568542 0,270 L0,30 C0,13.4314575 13.4314575,0 30,0 Z" id="Rectangle"></path>
                <path d="M160,60 L240,60 L240,430 C240,446.568542 226.568542,460 210,460 L160,460 L160,460 L160,60 Z" id="Rectangle" transform="translate(200.000000, 260.000000) rotate(90.000000) translate(-200.000000, -260.000000) "></path>
                <path d="M160,-160 L240,-160 L240,240 L190,240 C173.431458,240 160,226.568542 160,210 L160,-160 L160,-160 Z" id="Rectangle" transform="translate(200.000000, 40.000000) rotate(90.000000) translate(-200.000000, -40.000000) "></path>
                <polygon id="Rectangle" transform="translate(200.000000, 150.000000) rotate(90.000000) translate(-200.000000, -150.000000) " points="170 -50 230 -50 230 350 170 350"></polygon>
            </g>
            <rect id="Rectangle" x="420" y="0" width="80" height="300"></rect>
            <g id="B" transform="translate(1480.000000, 0.000000)">
                <path d="M30,0 L80,0 L80,0 L80,124 L0,124 L0,30 C0,13.4314575 13.4314575,0 30,0 Z" id="Rectangle"></path>
                <g id="Group">
                    <path d="M191.764706,0 C240.495713,0 280,39.5042868 280,88.2352941 C280,136.966301 240.495713,176.470588 191.764706,176.470588 L-7.77827971e-16,176.470588 L-7.77827971e-16,38.458278 C-7.77827971e-16,25.0854969 1.39238417,20.2362033 4.00699056,15.3473144 C6.62159695,10.4584256 10.4584256,6.62159695 15.3473144,4.00699056 C20.1632348,1.43140814 24.940733,0.041835977 37.8651645,0 L191.764706,0 Z M166.63798,54.2986425 L80,54.2986425 L80,122.171946 L166.63798,122.171946 C173.895252,122.171946 179.763797,120.779562 184.652686,118.164955 C189.541574,115.550349 193.378403,111.71352 195.993009,106.824631 C198.607616,101.935742 200,96.0671973 200,88.8099254 L200,87.6606629 C200,80.403391 198.607616,74.5348459 195.993009,69.645957 C193.378403,64.7570681 189.541574,60.9202395 184.652686,58.3056331 C179.763797,55.6910267 173.895252,54.2986425 166.63798,54.2986425 Z" id="Combined-Shape"></path>
                </g>
                <g id="Group" transform="translate(0.000000, 123.529412)">
                    <path d="M191.764706,0 C240.495713,0 280,39.5042868 280,88.2352941 C280,136.966301 240.495713,176.470588 191.764706,176.470588 L38.458278,176.470588 C25.0854969,176.470588 20.2362033,175.078204 15.3473144,172.463598 C10.4584256,169.848991 6.62159695,166.012163 4.00699056,161.123274 C1.43140814,156.307353 0.041835977,151.529855 -7.77827971e-16,138.605424 L-7.77827971e-16,38.458278 C-7.77827971e-16,25.0854969 1.39238417,20.2362033 4.00699056,15.3473144 C6.62159695,10.4584256 10.4584256,6.62159695 15.3473144,4.00699056 C20.1632348,1.43140814 24.940733,0.041835977 37.8651645,0 L191.764706,0 Z M166.63798,54.2986425 L80,54.2986425 L80,122.171946 L166.63798,122.171946 C173.895252,122.171946 179.763797,120.779562 184.652686,118.164955 C189.541574,115.550349 193.378403,111.71352 195.993009,106.824631 C198.607616,101.935742 200,96.0671973 200,88.8099254 L200,87.6606629 C200,80.403391 198.607616,74.5348459 195.993009,69.645957 C193.378403,64.7570681 189.541574,60.9202395 184.652686,58.3056331 C179.763797,55.6910267 173.895252,54.2986425 166.63798,54.2986425 Z" id="Combined-Shape"></path>
                </g>
            </g>
        </g>
    </g>
</svg>
