<?xml version="1.0" encoding="UTF-8"?>
<!--Generator: Apple Native CoreSVG 326-->
<!DOCTYPE svg
PUBLIC "-//W3C//DTD SVG 1.1//EN"
       "http://www.w3.org/Graphics/SVG/1.1/DTD/svg11.dtd">
<svg version="1.1" xmlns="http://www.w3.org/2000/svg" xmlns:xlink="http://www.w3.org/1999/xlink" viewBox="0 0 20.0781 21.4941">
 <g>
  <rect height="21.4941" opacity="0" width="20.0781" x="0" y="0"/>
  <path d="M1.36719 16.9043L9.05273 21.2598C9.59961 21.5723 10.1172 21.5723 10.6738 21.2598L18.3496 16.9043C19.248 16.3965 19.7168 15.8789 19.7168 14.4824L19.7168 6.74805C19.7168 5.73242 19.3457 5.09766 18.5254 4.62891L11.6113 0.703125C10.4297 0.0292969 9.28711 0.0292969 8.10547 0.703125L1.20117 4.62891C0.371094 5.09766 0 5.73242 0 6.74805L0 14.4824C0 15.8789 0.478516 16.3965 1.36719 16.9043ZM2.24609 15.6152C1.67969 15.3027 1.48438 14.9707 1.48438 14.4336L1.48438 7.06055L9.0918 11.4062L9.0918 19.5117ZM17.4805 15.6152L10.625 19.5117L10.625 11.4062L18.2324 7.06055L18.2324 14.4336C18.2324 14.9707 18.0371 15.3027 17.4805 15.6152ZM9.86328 10.0391L2.32422 5.77148L5.3418 4.04297L12.8809 8.33008ZM14.4531 7.44141L6.88477 3.16406L8.75977 2.09961C9.51172 1.66992 10.2051 1.66016 10.9668 2.09961L17.4023 5.77148Z" fill="black" fill-opacity="0.85"/>
 </g>
</svg>
