<svg width="127" height="24" viewBox="0 0 127 24" fill="none" xmlns="http://www.w3.org/2000/svg">
<rect width="127" height="24" rx="12" fill="black"/>
<path d="M7.75 12.9502L12.048 15.4871V19L7.75 12.9502Z" fill="#909090"/>
<path d="M7.75 12.1307L12.048 10.1748V5L7.75 12.1307Z" fill="#909090"/>
<path d="M7.75 12.1307L12.048 10.1748V14.6712L7.75 12.1307Z" fill="#484848"/>
<path d="M16.346 12.9502L12.048 15.4871V19L16.346 12.9502Z" fill="#404040"/>
<path d="M16.346 12.1307L12.048 10.1748V5L16.346 12.1307Z" fill="#404040"/>
<path d="M16.346 12.1307L12.048 10.1748V14.6712L16.346 12.1307Z" fill="#101010"/>
<path d="M26.6094 10.337H27.9358C27.9166 9.17045 26.9578 8.36506 25.5004 8.36506C24.0654 8.36506 23.0139 9.15767 23.0203 10.3466C23.0171 11.3118 23.6978 11.8647 24.8037 12.13L25.5164 12.3089C26.2291 12.4815 26.6254 12.6861 26.6286 13.1271C26.6254 13.6065 26.1716 13.9325 25.4684 13.9325C24.7493 13.9325 24.2316 13.6001 24.1868 12.945H22.8477C22.8829 14.3608 23.896 15.0927 25.4844 15.0927C27.0824 15.0927 28.0221 14.3288 28.0253 13.1303C28.0221 12.0405 27.2007 11.462 26.0629 11.2063L25.4748 11.0657C24.9059 10.9347 24.4297 10.7237 24.4393 10.2539C24.4393 9.83203 24.8133 9.52202 25.4908 9.52202C26.1524 9.52202 26.5583 9.82244 26.6094 10.337ZM28.9305 15H30.292V10.0909H28.9305V15ZM29.6145 9.4581C30.0204 9.4581 30.3528 9.14808 30.3528 8.76776C30.3528 8.39062 30.0204 8.08061 29.6145 8.08061C29.2118 8.08061 28.8794 8.39062 28.8794 8.76776C28.8794 9.14808 29.2118 9.4581 29.6145 9.4581ZM33.5943 16.9432C34.9974 16.9432 35.9945 16.304 35.9945 15.0479V10.0909H34.6426V10.9155H34.5915C34.4093 10.516 34.0098 10.027 33.1884 10.027C32.1114 10.027 31.2005 10.8643 31.2005 12.5359C31.2005 14.169 32.0858 14.9297 33.1916 14.9297C33.9747 14.9297 34.4125 14.5366 34.5915 14.1307H34.649V15.0288C34.649 15.7031 34.2176 15.9652 33.6263 15.9652C33.0254 15.9652 32.7218 15.7031 32.61 15.4059L31.3507 15.5753C31.5137 16.3487 32.2712 16.9432 33.5943 16.9432ZM33.6231 13.907C32.9551 13.907 32.5908 13.3764 32.5908 12.5295C32.5908 11.6953 32.9487 11.1104 33.6231 11.1104C34.2847 11.1104 34.6554 11.6697 34.6554 12.5295C34.6554 13.3956 34.2783 13.907 33.6231 13.907ZM38.4395 12.1619C38.4427 11.5291 38.8198 11.1584 39.3695 11.1584C39.9161 11.1584 40.2453 11.5163 40.2421 12.1172V15H41.6036V11.8743C41.6036 10.7301 40.9324 10.027 39.9097 10.027C39.181 10.027 38.6536 10.3849 38.4331 10.957H38.3756V10.0909H37.078V15H38.4395V12.1619ZM44.7596 15H46.1211V10.0909H44.7596V15ZM45.4436 9.4581C45.8495 9.4581 46.1819 9.14808 46.1819 8.76776C46.1819 8.39062 45.8495 8.08061 45.4436 8.08061C45.0409 8.08061 44.7085 8.39062 44.7085 8.76776C44.7085 9.14808 45.0409 9.4581 45.4436 9.4581ZM48.5733 12.1619C48.5765 11.5291 48.9536 11.1584 49.5033 11.1584C50.0498 11.1584 50.379 11.5163 50.3758 12.1172V15H51.7373V11.8743C51.7373 10.7301 51.0662 10.027 50.0435 10.027C49.3148 10.027 48.7874 10.3849 48.5669 10.957H48.5094V10.0909H47.2118V15H48.5733V12.1619ZM55.8618 15H57.3L58.1438 11.9126H58.2045L59.0483 15H60.4897L61.8224 10.0909H60.4481L59.7002 13.37H59.6587L58.8533 10.0909H57.5014L56.7088 13.3892H56.664L55.9034 10.0909H54.5259L55.8618 15ZM62.5487 15H63.9102V10.0909H62.5487V15ZM63.2326 9.4581C63.6385 9.4581 63.9709 9.14808 63.9709 8.76776C63.9709 8.39062 63.6385 8.08061 63.2326 8.08061C62.8299 8.08061 62.4976 8.39062 62.4976 8.76776C62.4976 9.14808 62.8299 9.4581 63.2326 9.4581ZM67.612 10.0909H66.6883V8.91477H65.3268V10.0909H64.6557V11.1136H65.3268V13.6705C65.3204 14.6325 65.9756 15.1087 66.9632 15.0671C67.3148 15.0543 67.5641 14.984 67.7015 14.9393L67.4873 13.9261C67.4202 13.9389 67.2764 13.9709 67.1486 13.9709C66.8769 13.9709 66.6883 13.8686 66.6883 13.4915V11.1136H67.612V10.0909ZM69.9659 12.1619C69.9691 11.5291 70.3558 11.1584 70.9119 11.1584C71.4648 11.1584 71.7908 11.5131 71.7876 12.1172V15H73.1491V11.8743C73.1523 10.7237 72.4747 10.027 71.452 10.027C70.7073 10.027 70.2088 10.3786 69.985 10.957H69.9275V8.45455H68.6044V15H69.9659V12.1619ZM76.3291 15H80.7524V13.859H77.713V12.2962H80.5127V11.1552H77.713V9.59553H80.7397V8.45455H76.3291V15ZM84.4255 10.0909H83.5018V8.91477H82.1403V10.0909H81.4691V11.1136H82.1403V13.6705C82.1339 14.6325 82.7891 15.1087 83.7767 15.0671C84.1282 15.0543 84.3775 14.984 84.515 14.9393L84.3008 13.9261C84.2337 13.9389 84.0899 13.9709 83.962 13.9709C83.6904 13.9709 83.5018 13.8686 83.5018 13.4915V11.1136H84.4255V10.0909ZM86.7793 12.1619C86.7825 11.5291 87.1693 11.1584 87.7254 11.1584C88.2783 11.1584 88.6043 11.5131 88.6011 12.1172V15H89.9626V11.8743C89.9658 10.7237 89.2882 10.027 88.2655 10.027C87.5208 10.027 87.0222 10.3786 86.7985 10.957H86.741V8.45455H85.4178V15H86.7793V12.1619ZM93.2713 15.0959C94.4858 15.0959 95.3039 14.5046 95.4957 13.5938L94.2365 13.5107C94.099 13.8846 93.7475 14.0795 93.2936 14.0795C92.6129 14.0795 92.1814 13.6289 92.1814 12.897V12.8938H95.5245V12.5199C95.5245 10.8516 94.5145 10.027 93.2169 10.027C91.7723 10.027 90.8359 11.0529 90.8359 12.5678C90.8359 14.1243 91.7595 15.0959 93.2713 15.0959ZM92.1814 12.0501C92.2102 11.4908 92.6353 11.0433 93.2393 11.0433C93.8306 11.0433 94.2397 11.4652 94.2429 12.0501H92.1814ZM96.413 15H97.7745V12.2227C97.7745 11.6186 98.2155 11.2031 98.8164 11.2031C99.0049 11.2031 99.2638 11.2351 99.3916 11.2766V10.0685C99.2702 10.0398 99.1008 10.0206 98.9634 10.0206C98.4137 10.0206 97.963 10.3402 97.784 10.9474H97.7329V10.0909H96.413V15ZM102.104 15.0959C103.319 15.0959 104.137 14.5046 104.329 13.5938L103.069 13.5107C102.932 13.8846 102.58 14.0795 102.127 14.0795C101.446 14.0795 101.014 13.6289 101.014 12.897V12.8938H104.357V12.5199C104.357 10.8516 103.348 10.027 102.05 10.027C100.605 10.027 99.6689 11.0529 99.6689 12.5678C99.6689 14.1243 100.593 15.0959 102.104 15.0959ZM101.014 12.0501C101.043 11.4908 101.468 11.0433 102.072 11.0433C102.664 11.0433 103.073 11.4652 103.076 12.0501H101.014ZM108.394 12.9098C108.397 13.5682 107.947 13.9134 107.458 13.9134C106.943 13.9134 106.611 13.5522 106.607 12.9737V10.0909H105.246V13.2166C105.249 14.364 105.92 15.0639 106.908 15.0639C107.646 15.0639 108.177 14.6836 108.397 14.1083H108.448V15H109.756V10.0909H108.394V12.9098ZM110.845 15H112.206V12.0533C112.206 11.5099 112.551 11.1488 113.005 11.1488C113.453 11.1488 113.753 11.4556 113.753 11.9382V15H115.073V12.0021C115.073 11.494 115.364 11.1488 115.859 11.1488C116.294 11.1488 116.62 11.4205 116.62 11.967V15H117.978V11.6985C117.978 10.6342 117.345 10.027 116.431 10.027C115.712 10.027 115.153 10.3945 114.951 10.957H114.9C114.744 10.3881 114.242 10.027 113.568 10.027C112.906 10.027 112.404 10.3786 112.2 10.957H112.142V10.0909H110.845V15Z" fill="white"/>
</svg>
